<svg width="24" height="24" viewBox="0 0 24 24" fill="none" xmlns="http://www.w3.org/2000/svg"><rect width="24" height="24" fill="none" rx="0" ry="0"></rect><path fill-rule="evenodd" clip-rule="evenodd" d="M20.9896 12C20.9896 7.14767 17.0419 3.20001 12.1896 3.20001C7.33725 3.20001 3.38959 7.14767 3.38959 12C3.38959 16.8523 7.33725 20.8 12.1896 20.8C17.0419 20.8 20.9896 16.8523 20.9896 12ZM2.18958 12C2.18958 6.47714 6.66672 2 12.1896 2C17.7124 2 22.1896 6.47714 22.1896 12C22.1896 17.5229 17.7124 22 12.1896 22C6.66672 22 2.18958 17.5229 2.18958 12ZM13.0104 12.7368L14.1334 9.85147L11.4103 11.3062L10.2671 14.1705L13.0104 12.7368ZM10.4583 10.4543L16.4276 7.26535L13.9653 13.5918L7.95154 16.7346L10.4583 10.4543ZM11.59 4.20044V5.40259H12.7892V4.20044H11.59ZM11.59 19.7004V18.4983H12.7892V19.7004H11.59ZM19.8898 11.4006H18.6876V12.5999H19.8898V11.4006ZM4.48938 11.4006H5.69153V12.5999H4.48938V11.4006Z" fill="#ffffff"></path></svg>